<svg width="53" height="53" viewBox="0 0 53 53" fill="none" xmlns="http://www.w3.org/2000/svg">
  <path fill-rule="evenodd" clip-rule="evenodd"
    d="M26.9238 52.3799C41.2832 52.3799 52.9238 40.7393 52.9238 26.3799C52.9238 12.0205 41.2832 0.379883 26.9238 0.379883C12.5644 0.379883 0.923828 12.0205 0.923828 26.3799C0.923828 40.7393 12.5644 52.3799 26.9238 52.3799ZM12.9378 18.1799C12.9378 16.6399 14.1838 15.3799 15.7238 15.3799H38.1238C39.6638 15.3799 40.9238 16.6399 40.9238 18.1799V34.9799C40.9238 36.5199 39.6638 37.7799 38.1238 37.7799H15.7238C14.1838 37.7799 12.9238 36.5199 12.9238 34.9799L12.9378 18.1799ZM26.9238 27.9799L38.1238 20.9799V18.1799L26.9238 25.1799L15.7238 18.1799V20.9799L26.9238 27.9799Z"
    fill="currentColor"></path>
</svg>