<svg width="49" height="48" viewBox="0 0 49 48" fill="none" xmlns="http://www.w3.org/2000/svg">
  <g clip-path="url(#clip0_75_1986)">
    <rect x="0.5" width="48" height="48" rx="24" fill="#F5DE19" />
    <path d="M-0.125 -2.625H47.125V44.625H-0.125V-2.625Z" fill="#F5DE19" />
    <path
      d="M31.6154 34.2895C32.018 35.1073 32.6434 35.7946 33.4197 36.2723C34.196 36.7501 35.0914 36.9987 36.0029 36.9895C37.8422 36.9895 39.0184 36.0699 39.0184 34.7958C39.0184 33.277 37.8102 32.7337 35.7852 31.8477L34.6748 31.3719C31.4686 30.0067 29.3423 28.2972 29.3423 24.6826C29.3423 21.3532 31.8736 18.8169 35.8442 18.8169C37.1296 18.724 38.4139 19.0117 39.5368 19.644C40.6598 20.2763 41.5717 21.2252 42.1589 22.3724L38.6877 24.5915C38.4616 24.0227 38.0679 23.536 37.5589 23.196C37.0499 22.8561 36.4495 22.6789 35.8375 22.688C35.5705 22.6612 35.3008 22.6904 35.0457 22.7737C34.7905 22.8569 34.5556 22.9924 34.3557 23.1715C34.1558 23.3506 33.9954 23.5693 33.8848 23.8138C33.7741 24.0583 33.7156 24.3231 33.7129 24.5915C33.7129 25.9229 34.5381 26.4629 36.4433 27.2915L37.5537 27.7674C41.3269 29.3857 43.4599 31.0344 43.4599 34.7418C43.4599 38.7395 40.3195 40.9299 36.1024 40.9299C34.4593 41.0345 32.821 40.6615 31.3852 39.8557C29.9494 39.0499 28.7775 37.8459 28.0109 36.3888L31.6154 34.2895ZM15.9301 34.6743C16.627 35.9112 17.2615 36.9575 18.787 36.9575C20.245 36.9575 21.1664 36.3871 21.1664 34.168V19.07H25.6062V34.2271C25.6062 38.8239 22.9062 40.9164 18.976 40.9164C17.5868 40.9923 16.2071 40.6461 15.0183 39.9232C13.8295 39.2004 12.8872 38.1347 12.3154 36.8664L15.9301 34.6743Z"
      fill="black" />
  </g>
  <defs>
    <clipPath id="clip0_75_1986">
      <rect x="0.5" width="48" height="48" rx="24" fill="white" />
    </clipPath>
  </defs>
</svg>